HIERARCHY
ROOT Hips
{
	OFFSET 0.00000 0.00000 0.00000
	CHANNELS 6 Xposition Yposition Zposition Zrotation Yrotation Xrotation 
	JOINT LHipJoint
	{
		OFFSET 0 0 0
		CHANNELS 3 Zrotation Yrotation Xrotation
		JOINT LeftHip
		{
			OFFSET 1.46561 -1.72757 0.83774
			CHANNELS 3 Zrotation Yrotation Xrotation
			JOINT LeftKnee
			{
				OFFSET 2.48915 -6.83890 0.00000
				CHANNELS 3 Zrotation Yrotation Xrotation
				JOINT LeftAnkle
				{
					OFFSET 2.60555 -7.15868 0.00000
					CHANNELS 3 Zrotation Yrotation Xrotation
					JOINT LeftToe
					{
						OFFSET 0.19248 -0.52884 2.26738
						CHANNELS 3 Zrotation Yrotation Xrotation
						End Site
						{
							OFFSET 0.00000 -0.00000 1.17015
						}
					}
				}
			}
		}
	}
	JOINT RHipJoint
	{
		OFFSET 0 0 0
		CHANNELS 3 Zrotation Yrotation Xrotation
		JOINT RightHip
		{
			OFFSET -1.46918 -1.72757 0.83774
			CHANNELS 3 Zrotation Yrotation Xrotation
			JOINT RightKnee
			{
				OFFSET -2.49034 -6.84216 0.00000
				CHANNELS 3 Zrotation Yrotation Xrotation
				JOINT RightAnkle
				{
					OFFSET -2.65971 -7.30750 0.00000
					CHANNELS 3 Zrotation Yrotation Xrotation
					JOINT RightToe
					{
						OFFSET -0.19227 -0.52827 2.30785
						CHANNELS 3 Zrotation Yrotation Xrotation
						End Site
						{
							OFFSET -0.00000 -0.00000 1.18972
						}
					}
				}
			}
		}
	}
	JOINT lowerback
	{
		OFFSET 0 0 0
		CHANNELS 3 Zrotation Yrotation Xrotation
		JOINT Chest
		{
			OFFSET 0.02432 2.19909 -0.28000
			CHANNELS 3 Zrotation Yrotation Xrotation
			JOINT Chest2
			{
				OFFSET 0.03714 2.21816 -0.15261
				CHANNELS 3 Zrotation Yrotation Xrotation
				JOINT lowerneck
				{
					OFFSET 0 0 0
					CHANNELS 3 Zrotation Yrotation Xrotation
					JOINT Neck
					{
						OFFSET -0.01896 1.56165 0.21681
						CHANNELS 3 Zrotation Yrotation Xrotation
						JOINT Head
						{
							OFFSET 0.02744 1.56009 0.06764
							CHANNELS 3 Zrotation Yrotation Xrotation
							End Site
							{
								OFFSET 0.01212 1.60574 0.00298
							}
						}
					}
				}
				JOINT LeftCollar
				{
					OFFSET 0 0 0
					CHANNELS 3 Zrotation Yrotation Xrotation
					JOINT LeftShoulder
					{
						OFFSET 3.05595 1.48048 -0.60794
CHANNELS 3 Zrotation Xrotation Yrotation
						JOINT LeftElbow
						{
OFFSET 0 -5.206070 -0.000000
CHANNELS 3 Zrotation Xrotation Yrotation
							JOINT LeftWrist
							{
OFFSET 0 -3.399610 0.000000
CHANNELS 3 Zrotation Xrotation Yrotation
								JOINT lhand
								{
									OFFSET 0 0 0
CHANNELS 3 Zrotation Xrotation Yrotation
									JOINT LFingers
									{
OFFSET 0 -0.519690 0.000000
CHANNELS 3 Zrotation Xrotation Yrotation
										End Site
										{
OFFSET 0 -0.418990 0.000000
										}
									}
								}
								JOINT LThumb
								{
OFFSET 0 0.000000 0.000000
CHANNELS 3 Zrotation Xrotation Yrotation
									End Site
									{
OFFSET 0 -0.425390 0.425390
									}
								}
							}
						}
					}
				}
				JOINT RightCollar
				{
					OFFSET 0 0 0
					CHANNELS 3 Zrotation Yrotation Xrotation
					JOINT RightShoulder
					{
						OFFSET -2.99052 1.57608 -0.69102
CHANNELS 3 Zrotation Xrotation Yrotation
						JOINT RightElbow
						{
OFFSET 0 -5.322140 0.000000
CHANNELS 3 Zrotation Xrotation Yrotation
							JOINT RightWrist
							{
OFFSET 0 -3.512080 0.000000
CHANNELS 3 Zrotation Xrotation Yrotation
								JOINT rhand
								{
									OFFSET 0 0 0
CHANNELS 3 Zrotation Xrotation Yrotation
									JOINT RFingers
									{
OFFSET 0 -0.586680 0.000000
CHANNELS 3 Zrotation Xrotation Yrotation
										End Site
										{
OFFSET 0 -0.473000 0.000000
										}
									}
								}
								JOINT RThumb
								{
OFFSET 0 0.000000 0.000000
CHANNELS 3 Zrotation Xrotation Yrotation
									End Site
									{
OFFSET 0 -0.480220 0.480220
									}
								}
							}
						}
					}
				}
			}
		}
	}
}
MOTION
Frames: 7
Frame Time: 0.008333333333333333
0.239794 15.651812 -11.403720 -1.281716 1.277105 20.955400 0.000000 0.000000 0.000000 -13.245297 -9.813388 -38.603596 10.181340 17.510526 60.092494 1.897342 14.679868 -34.753403 1.560622 -7.883596 -22.361054 0.000000 0.000000 0.000000 17.763255 11.704609 -37.157402 -9.823256 -17.309162 58.895816 -3.609685 -11.251872 -40.978686 -0.338787 3.740379 -10.347261 -1.114505 0.781700 13.911257 2.628058 1.084772 -0.822234 3.222839 0.645105 -8.790017 -3.469862 -0.600252 -23.632391 -0.367911 0.411269 14.827083 0.489750 -0.054716 8.470493 0.000000 0.000000 0.000000 3.126883 -17.470188 -24.291942 10.096798 -16.890757 1.502923 29.372275 -15.024185 7.405650 0.000000 0.000000 0.000000 -7.125000 0.000000 0.000000 1.863012 21.498286 1.051196 0.000000 0.000000 0.000000 -6.679077 -13.559842 10.585974 -13.989055 -22.718964 -2.823870 -25.547474 43.031141 25.594258 0.000000 0.000000 0.000000 7.125000 0.000000 0.000000 4.724535 57.881477 -1.491740
0.239209 15.762839 -11.171954 -1.018439 1.390552 20.292644 0.000000 0.000000 0.000000 -13.923761 -9.018762 -36.465931 9.791987 17.291105 58.790610 1.758472 14.283310 -33.644317 1.726036 -8.270162 -23.537942 0.000000 0.000000 0.000000 18.000138 10.637401 -34.609176 -9.240809 -16.959895 56.918964 -3.525016 -11.074814 -40.490181 -0.409365 4.106676 -11.377116 -1.216859 0.730509 13.088567 2.532082 0.989999 -0.753933 3.196165 0.594514 -8.239315 -3.506381 -0.605613 -23.170810 -0.338146 0.397570 15.346454 0.505063 -0.066675 8.571737 0.000000 0.000000 0.000000 3.094347 -17.406265 -25.280808 10.379674 -17.331274 1.586214 29.299834 -15.534174 7.351057 0.000000 0.000000 0.000000 -7.125000 0.000000 0.000000 1.814259 21.566440 1.020881 0.000000 0.000000 0.000000 -6.635257 -13.481105 11.049951 -14.085561 -22.856880 -2.861241 -25.522194 42.716140 25.538239 0.000000 0.000000 0.000000 7.125000 0.000000 0.000000 4.730227 57.816661 -1.486128
0.239470 15.806396 -10.951610 -0.752069 1.536099 19.600942 0.000000 0.000000 0.000000 -14.486347 -8.245749 -34.691408 9.522511 17.132207 57.879802 1.600926 13.667671 -32.203738 1.900114 -8.654359 -24.720106 0.000000 0.000000 0.000000 18.142700 9.601859 -32.292407 -8.733590 -16.632491 55.163115 -3.383208 -10.859589 -39.705239 -0.500974 4.536289 -12.590807 -1.320343 0.669319 12.140522 2.432847 0.884416 -0.669071 3.167397 0.537015 -7.600160 -3.532496 -0.612991 -22.623197 -0.298195 0.372067 15.922778 0.520881 -0.083017 8.677653 0.000000 0.000000 0.000000 3.051922 -17.287397 -26.161208 10.593954 -17.663202 1.650614 29.274679 -15.781110 7.342654 0.000000 0.000000 0.000000 -7.125000 0.000000 0.000000 1.796535 21.578056 1.010425 0.000000 0.000000 0.000000 -6.564527 -13.350727 11.453164 -14.157899 -22.960001 -2.889417 -25.420447 42.285223 25.454062 0.000000 0.000000 0.000000 7.125000 0.000000 0.000000 4.808981 57.705319 -1.498042
0.238886 15.945495 -10.700718 -0.496009 1.706205 18.893782 0.000000 0.000000 0.000000 -15.051788 -7.314376 -32.655073 9.172268 16.916996 56.683664 1.433847 12.808319 -30.440757 2.068724 -9.007369 -25.818822 0.000000 0.000000 0.000000 18.323462 8.427461 -29.631009 -8.128247 -16.211744 53.021535 -3.175722 -10.602246 -38.561558 -0.615906 5.020827 -13.968249 -1.416071 0.600018 11.055164 2.329645 0.772505 -0.560441 3.129827 0.473893 -6.859265 -3.549388 -0.622826 -21.974655 -0.242763 0.332055 16.513916 0.538659 -0.103850 8.770773 0.000000 0.000000 0.000000 3.012605 -17.122046 -26.994378 10.766500 -17.929439 1.703383 29.265178 -15.969585 7.330519 0.000000 0.000000 0.000000 -7.125000 0.000000 0.000000 1.790511 21.592653 1.006455 0.000000 0.000000 0.000000 -6.465579 -13.189487 11.805947 -14.209472 -23.033432 -2.909590 -25.255289 41.837381 25.357749 0.000000 0.000000 0.000000 7.125000 0.000000 0.000000 4.952654 57.566722 -1.526340
0.238736 16.094745 -10.441344 -0.258738 1.891450 18.166461 0.000000 0.000000 0.000000 -15.531545 -6.328012 -30.703617 8.843457 16.705421 55.546489 1.255970 11.719578 -28.331147 2.225960 -9.321182 -26.805656 0.000000 0.000000 0.000000 18.468277 7.214053 -26.999363 -7.544589 -15.772293 50.902596 -2.906649 -10.247162 -37.010416 -0.751423 5.534436 -15.439826 -1.498234 0.524313 9.847166 2.222589 0.657766 -0.419386 3.079511 0.406688 -6.016899 -3.546566 -0.630260 -21.221595 -0.181923 0.282607 17.085322 0.553980 -0.126519 8.838032 0.000000 0.000000 0.000000 2.988043 -16.922377 -27.828635 10.915757 -18.158927 1.749567 29.240925 -16.270875 7.304277 0.000000 0.000000 0.000000 -7.125000 0.000000 0.000000 1.774614 21.624509 0.996205 0.000000 0.000000 0.000000 -6.341234 -13.015976 12.116726 -14.240880 -23.078103 -2.921896 -25.046289 41.484508 25.264005 0.000000 0.000000 0.000000 7.125000 0.000000 0.000000 5.144860 57.421527 -1.567786
0.239276 16.254901 -10.174038 -0.053407 2.080377 17.408177 0.000000 0.000000 0.000000 -15.923044 -5.283450 -28.754768 8.475304 16.457396 54.256401 1.050454 10.429687 -25.734041 2.363790 -9.585562 -27.645133 0.000000 0.000000 0.000000 18.593887 5.942785 -24.344499 -6.940888 -15.280180 48.647248 -2.554901 -9.799026 -34.887587 -0.904816 6.059448 -16.957806 -1.558394 0.445305 8.542314 2.115339 0.545052 -0.238331 3.014362 0.337684 -5.081199 -3.530610 -0.635153 -20.348098 -0.113479 0.224347 17.598281 0.568520 -0.150489 8.862793 0.000000 0.000000 0.000000 2.981348 -16.694085 -28.673804 11.059113 -18.378866 1.794547 29.190688 -16.776817 7.273095 0.000000 0.000000 0.000000 -7.125000 0.000000 0.000000 1.740186 21.663971 0.975321 0.000000 0.000000 0.000000 -6.196410 -12.840238 12.397727 -14.253855 -23.096388 -2.926922 -24.830143 41.312926 25.170337 0.000000 0.000000 0.000000 7.125000 0.000000 0.000000 5.343988 57.275172 -1.609834
0.241078 16.426783 -9.899594 0.107083 2.261995 16.607286 0.000000 0.000000 0.000000 -16.203086 -4.230172 -26.847863 8.117146 16.204065 52.982284 0.830454 9.038020 -22.737955 2.482300 -9.805453 -28.349127 0.000000 0.000000 0.000000 18.689451 4.652332 -21.764767 -6.386096 -14.790485 46.508820 -2.158030 -9.261917 -32.300183 -1.071233 6.577186 -18.469413 -1.584674 0.367233 7.181596 2.012003 0.440516 -0.016181 2.931768 0.270514 -4.075470 -3.505760 -0.636653 -19.358115 -0.038759 0.160966 18.037238 0.583084 -0.174226 8.839905 0.000000 0.000000 0.000000 2.991982 -16.438087 -29.523143 11.204016 -18.600287 1.840529 29.096981 -17.470516 7.228889 0.000000 0.000000 0.000000 -7.125000 0.000000 0.000000 1.674993 21.721633 0.936531 0.000000 0.000000 0.000000 -6.038756 -12.661858 12.662602 -14.254079 -23.096787 -2.927022 -24.628888 41.339815 25.066447 0.000000 0.000000 0.000000 7.125000 0.000000 0.000000 5.521893 57.121704 -1.643144
